<svg version="1.1" preserveAspectRatio="none" xmlns="http://www.w3.org/2000/svg" width="500" height="500" viewBox="0 0 500 500"><rect width="100%" height="100%" fill="#000000" fill-opacity="1"/><svg viewBox="181.269 157.3879 138.1829 152" width="302.72964276315787" height="333" x="98.6352px" y="83.5px" xmlns="http://www.w3.org/2000/svg" xmlns:xlink="http://www.w3.org/1999/xlink" preserveAspectRatio="none"><defs></defs><style>.companyName {fill:#DDDDDD;fill-opacity:1;}.icon3 {fill:#28AABC;fill-opacity:1;}.icon3-str {stroke:#28AABC;stroke-opacity:1;}.shape {fill:#D728CA;fill-opacity:1;}</style><g opacity="1" transform="rotate(0 224.3282 161.3879)">
<svg width="56.0647" height="70" x="224.3282" y="161.3879" version="1.1" preserveAspectRatio="none" viewBox="3.6 -25.32 20.28 25.32">
  <g transform="matrix(1 0 0 1 0 0)" class="icon3"><path id="id-IechDY4gX1" d="M23.04-25.32Q23.88-25.32 23.88-24.48L23.88-24.48L23.88-0.84Q23.88 0 23.04 0L23.04 0Q22.60 0 22.16-0.48L22.16-0.48L5.28-22.12L5.28-0.84Q5.28 0 4.44 0L4.44 0Q3.60 0 3.60-0.84L3.60-0.84L3.60-24.48Q3.60-25.32 4.44-25.32L4.44-25.32Q4.92-25.32 5.32-24.84L5.32-24.84L22.20-3.20L22.20-24.48Q22.20-25.32 23.04-25.32L23.04-25.32Z"/></g>
</svg>
</g><g opacity="1" transform="rotate(0 220.3282 157.3879)">
<svg width="56.0647" height="70" x="220.3282" y="157.3879" version="1.1" preserveAspectRatio="none" viewBox="3.6 -25.32 20.28 25.32">
  <g transform="matrix(1 0 0 1 0 0)" class="shape"><path id="id-p1tucruSh1" d="M23.04-25.32Q23.88-25.32 23.88-24.48L23.88-24.48L23.88-0.84Q23.88 0 23.04 0L23.04 0Q22.60 0 22.16-0.48L22.16-0.48L5.28-22.12L5.28-0.84Q5.28 0 4.44 0L4.44 0Q3.60 0 3.60-0.84L3.60-0.84L3.60-24.48Q3.60-25.32 4.44-25.32L4.44-25.32Q4.92-25.32 5.32-24.84L5.32-24.84L22.20-3.20L22.20-24.48Q22.20-25.32 23.04-25.32L23.04-25.32Z"/></g>
</svg>
</g><g opacity="1" transform="rotate(0 222.3279 159.3879)">
<svg width="56.0652" height="70" x="222.3279" y="159.3879" version="1.1" preserveAspectRatio="none" viewBox="3.6 -25.32 20.28 25.32">
  <g transform="matrix(1 0 0 1 0 0)" class="companyName"><path id="id-zm6CZq_Ug1" d="M23.04-25.32Q23.88-25.32 23.88-24.48L23.88-24.48L23.88-0.84Q23.88 0 23.04 0L23.04 0Q22.60 0 22.16-0.48L22.16-0.48L5.28-22.12L5.28-0.84Q5.28 0 4.44 0L4.44 0Q3.60 0 3.60-0.84L3.60-0.84L3.60-24.48Q3.60-25.32 4.44-25.32L4.44-25.32Q4.92-25.32 5.32-24.84L5.32-24.84L22.20-3.20L22.20-24.48Q22.20-25.32 23.04-25.32L23.04-25.32Z"/></g>
</svg>
</g><g opacity="1" transform="rotate(0 181.269 269.3879)">
<svg width="138.1829" height="40" x="181.269" y="269.3879" version="1.1" preserveAspectRatio="none" viewBox="3.72 -27.72 95.76 27.72">
  <g transform="matrix(1 0 0 1 0 0)" class="companyName"><path id="id-D6z1nYkh6" d="M23.36-25.76Q24.40-25.76 24.40-24.72L24.40-24.72L24.40-1.04Q24.40 0 23.36 0L23.36 0Q22.80 0 22.32-0.60L22.32-0.60L5.80-21.84L5.80-1.04Q5.80 0 4.76 0L4.76 0Q3.72 0 3.72-1.04L3.72-1.04L3.72-24.72Q3.72-25.76 4.76-25.76L4.76-25.76Q5.36-25.76 5.84-25.16L5.84-25.16L22.32-3.96L22.32-24.72Q22.32-25.76 23.36-25.76L23.36-25.76Z M32.88 0Q32.40 0 32.12-0.26Q31.84-0.52 31.84-1.04L31.84-1.04L31.84-17.84Q31.84-18.36 32.12-18.62Q32.40-18.88 32.88-18.88L32.88-18.88Q33.92-18.88 33.92-17.84L33.92-17.84L33.92-1.04Q33.92 0 32.88 0L32.88 0ZM32.44-22.52Q31.76-22.52 31.40-22.88Q31.04-23.24 31.04-23.92L31.04-23.92L31.04-24.80Q31.04-25.48 31.40-25.84Q31.76-26.20 32.44-26.20L32.44-26.20L33.36-26.20Q34.68-26.20 34.68-24.80L34.68-24.80L34.68-23.92Q34.68-22.52 33.36-22.52L33.36-22.52L32.44-22.52Z M55.64-1.80Q55.96-1.40 55.96-1.08L55.96-1.08Q55.96-0.68 55.52-0.32L55.52-0.32Q55.12 0 54.84 0L54.84 0Q54.48 0 54.08-0.40L54.08-0.40L46-9.52L43.44-7.28L43.44-1.04Q43.44 0 42.40 0L42.40 0Q41.36 0 41.36-1.04L41.36-1.04L41.36-26.68Q41.36-27.72 42.40-27.72L42.40-27.72Q43.44-27.72 43.44-26.68L43.44-26.68L43.44-10.08L53.60-18.80Q54-19.12 54.32-19.12L54.32-19.12Q54.72-19.12 55.08-18.68L55.08-18.68Q55.40-18.28 55.40-18L55.40-18Q55.40-17.64 54.96-17.20L54.96-17.20L47.60-10.84L55.64-1.80Z M61.52 0Q61.04 0 60.76-0.26Q60.48-0.52 60.48-1.04L60.48-1.04L60.48-17.84Q60.48-18.36 60.76-18.62Q61.04-18.88 61.52-18.88L61.52-18.88Q62.56-18.88 62.56-17.84L62.56-17.84L62.56-1.04Q62.56 0 61.52 0L61.52 0ZM61.08-22.52Q60.40-22.52 60.04-22.88Q59.68-23.24 59.68-23.92L59.68-23.92L59.68-24.80Q59.68-25.48 60.04-25.84Q60.40-26.20 61.08-26.20L61.08-26.20L62.00-26.20Q63.32-26.20 63.32-24.80L63.32-24.80L63.32-23.92Q63.32-22.52 62.00-22.52L62.00-22.52L61.08-22.52Z M77.72-2.08Q78.80-2.08 78.80-1.04L78.80-1.04Q78.80 0 77.72 0L77.72 0Q74.04 0 72.34-1.68Q70.64-3.36 70.64-7.04L70.64-7.04L70.64-16.80L68.24-16.80Q67.20-16.80 67.20-17.84L67.20-17.84Q67.20-18.88 68.24-18.88L68.24-18.88L70.64-18.88L70.64-23.20Q70.64-24.24 71.68-24.24L71.68-24.24Q72.72-24.24 72.72-23.20L72.72-23.20L72.72-18.88L77.76-18.88Q78.80-18.88 78.80-17.84L78.80-17.84Q78.80-16.80 77.76-16.80L77.76-16.80L72.72-16.80L72.72-7.04Q72.72-4.24 73.82-3.16Q74.92-2.08 77.72-2.08L77.72-2.08Z M92.28-18.88Q96.04-18.88 97.76-17.16Q99.48-15.44 99.48-11.68L99.48-11.68L99.48-1.04Q99.48 0 98.44 0L98.44 0Q97.40 0 97.40-1.04L97.40-1.04L97.40-3Q96.44-1.52 94.70-0.76Q92.96 0 90.52 0L90.52 0L88.28 0Q85.20 0 83.74-1.44Q82.28-2.88 82.28-6L82.28-6Q82.28-9.12 83.74-10.58Q85.20-12.04 88.28-12.04L88.28-12.04L97.40-12.04Q97.32-14.68 96.20-15.74Q95.08-16.80 92.28-16.80L92.28-16.80L89.96-16.80Q87.40-16.80 86.24-16.26Q85.08-15.72 84.80-14.40L84.80-14.40Q84.64-13.88 84.40-13.66Q84.16-13.44 83.72-13.44L83.72-13.44Q83.16-13.44 82.90-13.72Q82.64-14 82.68-14.52L82.68-14.52Q82.96-16.80 84.74-17.84Q86.52-18.88 89.96-18.88L89.96-18.88L92.28-18.88ZM97.32-6.08L97.40-6.40L97.40-9.96L88.28-9.96Q86.04-9.96 85.20-9.10Q84.36-8.24 84.36-6L84.36-6Q84.36-3.80 85.22-2.94Q86.08-2.08 88.28-2.08L88.28-2.08L90.52-2.08Q96.72-2.08 97.32-6.08L97.32-6.08Z"/></g>
</svg>
</g></svg></svg>